<svg xmlns="http://www.w3.org/2000/svg" viewBox="0 0 32 32">
  <!-- Water -->
  <rect x="0" y="20" width="32" height="12" rx="2" fill="#1a3a4a"/>
  <path d="M0 20 Q4 17 8 20 Q12 23 16 20 Q20 17 24 20 Q28 23 32 20 V22 Q28 25 24 22 Q20 19 16 22 Q12 25 8 22 Q4 19 0 22 Z" fill="#2a5a6a" opacity="0.6"/>
  <!-- Periscope tube -->
  <rect x="13" y="8" width="6" height="16" rx="1" fill="#c49a2a"/>
  <rect x="14" y="9" width="4" height="14" rx="0.5" fill="#a07820"/>
  <!-- Periscope head -->
  <rect x="11" y="4" width="10" height="6" rx="2" fill="#c49a2a"/>
  <rect x="12" y="5" width="8" height="4" rx="1.5" fill="#a07820"/>
  <!-- Lens -->
  <circle cx="20" cy="7" r="2.5" fill="#33ff33" opacity="0.9"/>
  <circle cx="20" cy="7" r="1.5" fill="#1a1a1a"/>
  <circle cx="19.3" cy="6.3" r="0.6" fill="#33ff33" opacity="0.5"/>
  <!-- Rivets -->
  <circle cx="13.5" cy="12" r="0.6" fill="#8a6a18"/>
  <circle cx="18.5" cy="12" r="0.6" fill="#8a6a18"/>
  <circle cx="13.5" cy="16" r="0.6" fill="#8a6a18"/>
  <circle cx="18.5" cy="16" r="0.6" fill="#8a6a18"/>
</svg>
